Patient4_TMGait_0pt8_01_right_02_EMG.mot
version=1
nRows=37
nColumns=33
inDegrees=no
endheader
time	1LAddLong	2LGlutMax	3LGlutMed	4LIliopsoas	5LSemiMemb	6LBicFemLong	7LRecFem	8LVastMed	9LVastLat	10LGasMed	11LTibAnt	12lTibPost	13LPeroneusLong	14LSol	15LExtDigLong	16LFlexDigLong	17RAddLong	18RGlutMax	19RGlutMed	20RIliopsoas	21RSemiMemb	22RBicFemLong	23RRecFem	24RVastMed	25RVastLat	26RGasMed	27RTibAnt	28RTibPost	29RPeroneusLong	30RSol	31RExtDigLong	32RFlexDigLong
2.695	0.017853	0.41107	0.059357	-0.007019	0.078888	0.19379	0.11963	-0.016479	-0.16464	-0.023499	-0.020294	-0.002441	0.050812	-0.1001	0.080566	-0.002899	0.030975	0.53741	-0.13855	0.003815	0.23636	0.063934	-0.42129	-0.040894	-0.028992	0.009308	-0.027771	-0.01709	-0.049438	0.40909	0.009308	-0.011749
2.696	0.028839	0.42572	0.083618	0.012512	0.08316	0.15182	0.062714	-0.013885	-0.028839	-0.018768	-0.011139	-0.001221	0.047913	-0.077515	0.11612	-0.002136	0.034943	0.55191	-0.038605	0.10284	0.21286	0.024414	-0.43091	-0.002747	-0.016327	0.010681	-0.02594	0.032349	0.013123	0.21729	0.01236	-0.012665
2.697	0.030823	0.392	0.079193	0.018158	0.10666	0.21225	0.02594	-0.009155	0.02182	-0.002136	-0.016785	-0.007782	0.029755	-0.032501	0.09613	0.002594	0.02533	0.48431	0.032196	0.11139	0.19486	-0.005188	-0.46432	0.022736	-0.020294	-0.006104	0.014496	-0.014496	0.000305	0.29083	0.018768	-0.011749
2.698	0.018005	0.34347	0.063019	0.023651	0.041504	0.32013	0.085907	-0.010834	0.01236	-0.019684	0.009613	-0.016632	0.050964	0.001068	0.074005	0.005188	0.023499	0.53497	-0.13001	0.073547	0.18829	-0.046692	-0.4599	0.046387	-0.000458	-0.00473	0.059204	-0.061951	-0.12009	0.50018	0.018005	-0.006866
2.699	0.005646	0.30594	0.050049	0.007782	0.012207	0.35065	0.13489	-0.017548	0.023651	-0.003662	0.017395	-0.001831	0.054169	-0.031281	0.06012	-0.001373	0.030518	0.61966	0.019531	0.075989	0.17792	-0.054321	-0.43594	0.049286	-0.018158	-0.007935	0.071106	-0.24872	0.11368	0.52826	0.019073	-0.008545
2.7	0.012054	0.21668	0.026855	0.011139	0.052185	0.19257	0.103	-0.024109	0.10208	-0.008392	-0.031281	-0.000458	0.067444	-0.031738	0.066986	-0.00412	0.014343	0.57739	0.085907	0.035553	0.14908	-0.021362	-0.46524	0.02182	-0.018463	-0.003052	0.071716	-0.18021	0.1384	0.32761	0.010681	-0.010529
2.701	0.015106	0.12817	0.018616	0.005951	0.043335	0.24948	0.05249	-0.027771	0.31067	-0.015259	-0.055389	-0.005951	0.095978	-0.043335	0.0177	-0.007172	0.006561	0.513	0.1506	0.021057	0.15671	0.048828	-0.43427	0.05661	-0.010376	0.000305	0.10269	0.31464	0.05127	0.019531	0.016174	-0.016327
2.702	0.022278	0.092926	-0.034027	0.00473	0.036316	0.24612	0.042419	-0.028381	0.2359	-0.011292	0.052338	-0.005493	0.068359	-0.031586	-0.025787	-0.01358	-0.024414	0.54245	0.10117	0.078888	0.15045	0.08728	-0.45578	0.04303	-0.004425	0.009308	0.040894	0.14969	0.12787	-0.29755	0.016632	-0.009766
2.703	0.027313	0.068054	-0.065002	0.002289	0.02182	0.29068	-0.025177	-0.034637	-0.033875	0.006256	0.19653	-0.000458	0.011902	-0.018311	-0.070953	0.002747	-0.048676	0.5864	0.26276	0.04303	0.14435	0.086517	-0.47257	0.0383	-0.032196	0.005493	-0.10925	0.010681	0.13733	-0.38101	0.015869	-0.006104
2.704	0.006409	0.11261	-0.10605	0.005798	-0.001831	0.45593	0.052185	-0.026398	-0.20462	0.014801	0.25452	-0.01297	0.026855	0.003662	-0.024261	-0.008545	-0.047913	0.57159	0.25574	-0.00946	0.14587	0.023651	-0.47516	0.042572	-0.033417	0	-0.12772	0.006256	-0.224	-0.33127	0.014954	-0.011292
2.705	-0.005646	0.16205	-0.09201	0.010834	0.003967	0.27466	0.12711	-0.011444	-0.19592	0.010071	0.22385	-0.01709	0.003815	0.02655	0.18204	-0.010681	-0.049744	0.60837	-0.024109	-0.009155	0.15137	-0.020752	-0.47638	0.057983	-0.029602	-0.01709	0.10529	-0.005798	-0.44525	-0.18753	0.014343	-0.019226
2.706	0.001526	0.21927	-0.067596	-0.004578	0.012817	-0.26459	0.08255	-0.000458	-0.13611	-0.009308	0.071716	0.001678	0.080109	0.048828	0.59418	-0.015411	-0.034027	0.61966	-0.16876	-0.010223	0.12772	-0.079193	-0.53482	0.079651	-0.019989	-0.015564	0.30273	-0.005341	-0.40405	-0.13412	0.015717	-0.019836
2.707	-0.010223	0.26916	-0.006256	-0.00824	0.010986	-0.33173	0.058899	0.010834	-0.10193	-0.05127	-0.29923	0.000153	0.24292	0.11688	-0.21118	0.002136	-0.010529	0.57205	-0.10513	0.007629	0.14023	-0.21622	-0.54886	0.10132	0.002441	-0.006561	0.37308	-0.004883	-0.23178	-0.079041	0.015106	-0.02533
2.708	-0.014801	0.30594	-0.020447	0.00412	0.022583	-0.25406	0.000763	0.020752	-0.062866	-0.010681	-0.029907	-0.001068	0.17975	0.14099	0.48019	-0.004883	0.007935	0.616	-0.00824	0.007324	0.20493	-0.20966	-0.51743	0.084839	-0.008698	-0.00885	0.24017	-0.013123	-0.12222	-0.14023	0.011139	-0.025787
2.709	-0.018463	0.27329	-0.12375	0.000916	-0.052795	-0.22873	-0.015259	0.031433	0.032043	0.021362	0.17563	-0.006104	0.04425	0.16861	0.14786	0.007172	0.018158	0.70572	-0.033722	-0.00946	0.25635	-0.20691	-0.55267	0.070801	-0.006714	-0.009918	-0.13748	-0.01297	0.09964	-0.22827	0.013428	-0.02533
2.71	0.005035	0.24735	-0.18051	0.009003	-0.059052	-0.38544	0.007629	0.02655	0.20615	-0.017853	-0.020752	-0.006561	0.010834	0.19745	-0.19501	0.005188	0.028381	0.64972	0.047302	-0.032043	0.25146	-0.17075	-0.55145	0.099487	-0.017242	-0.010681	-0.60379	-0.007477	0.44098	-0.28885	0.013275	-0.026703
2.711	0.011444	0.20737	-0.22293	0.010529	0.007629	-0.45502	0.061798	0.008087	0.27344	-0.000305	0.062866	-0.005798	0.029907	0.14786	-0.34882	0.003815	0.046844	0.73273	0.034943	-0.031128	0.28168	-0.09079	-0.54733	0.067291	-0.028381	-0.005951	-0.63843	-0.015411	0.44342	-0.20721	0.010834	-0.022125
2.712	0.017853	0.19043	-0.17975	0.021667	-0.068665	-0.31555	0.076294	-0.011139	0.25864	0.013123	-0.1207	0.006409	0.027008	0.052338	-0.20752	-0.012054	0.071869	0.64102	0.055237	0.025024	0.34821	-0.044556	-0.5188	0.066986	-0.026703	-0.010223	-0.32562	-0.01358	0.27557	-0.16632	0.011902	-0.036621
2.713	0.035095	0.19806	-0.066986	0.013428	0.086975	-0.22522	0.042572	-0.011444	0.26169	-0.009003	-0.26276	-0.002136	0.059662	-0.024567	-0.31769	-0.011749	0.075073	0.61935	0.010986	0.024109	0.30563	0.074463	-0.51132	0.067291	-0.026245	-0.01236	-0.25467	-0.013733	0.091858	-0.09552	0.012512	-0.019684
2.714	0.042572	0.16266	-0.15503	0.003815	0.12146	-0.37643	-0.020294	-0.00824	0.34271	-0.046997	-0.16815	-0.000153	0.15121	-0.059509	-0.31799	-0.006409	0.078125	0.61142	-0.08255	0.020294	0.30579	0.17456	-0.48966	0.033112	-0.028381	-0.004272	0.038605	-0.013275	-0.12573	-0.14328	0.012817	-0.021362
2.715	0.027771	0.12253	-0.24857	-0.009613	0.057678	-0.35111	-0.015411	0.006409	0.28534	-0.06012	-0.17029	0.006256	0.20355	-0.054626	-0.24597	0.000305	0.072021	0.62042	-0.084076	0.001068	0.30548	0.13184	-0.45563	0.04776	-0.017548	0.001068	0.15625	-0.01358	-0.31052	-0.27695	0.015717	-0.023651
2.716	0.011292	0.13519	-0.26901	0.010071	0.0383	-0.31784	0.010986	0.013275	0.19196	-0.038147	-0.12039	0.007019	0.16876	-0.02655	-0.20584	0.003052	0.050354	0.56808	0.039825	-0.088501	0.27771	0.12741	-0.53299	0.067444	-0.003662	0.010529	0.51926	-0.015564	-0.38681	-0.36163	0.012207	-0.022583
2.717	0.007629	0.21378	-0.099945	0.007172	0.024109	-0.32745	0.059204	0.015869	0.095978	-0.002289	-0.040741	0.005188	0.11032	-0.10346	-0.17868	0.005646	0.031281	0.55054	0.039215	-0.061646	0.25497	0.046234	-0.46219	0.052338	-0.003662	0.004272	0.64117	-0.00824	-0.44846	-0.30914	0.012512	-0.018768
2.718	-0.013733	0.2565	0.10956	-0.008392	0.010376	-0.22522	0.075989	0.032959	0.066071	0.022583	-0.011292	0.00412	0.019989	-0.14801	-0.31097	0.008698	0.053864	0.48553	-0.033264	-0.057983	0.27115	-0.000763	-0.47592	0.036469	-0.009918	0.010223	0.31235	-0.007477	-0.10132	-0.24323	0.012512	-0.016174
2.719	-0.023193	0.14923	0.21896	-0.00061	-0.045319	-0.11108	0.083618	0.037231	-0.10315	0.029297	0.014801	0.011597	0.000153	-0.14038	-0.11932	0.018311	0.015259	0.32013	0.11002	-0.032043	0.22049	-0.057678	-0.49957	-0.015259	0.001678	0.0177	-0.034637	-0.007477	0.19394	-0.17105	0.013123	-0.021973
2.72	-0.042114	0.11566	0.24719	-0.007782	-0.083618	-0.023499	0.065308	0.023804	-0.31769	0.01709	-0.067902	0.016632	0.005493	-0.091705	0.000458	0.006409	-0.037384	0.32257	0.17883	-0.009003	0.17624	-0.08194	-0.52277	0.038605	0.000305	0.009003	-0.3717	-0.012817	0.36102	-0.3183	0.008545	-0.019226
2.721	-0.037689	0.11154	0.19592	0.005493	-0.099487	0.009766	0.041199	0.014954	-0.44983	0.007019	-0.10712	0.014191	0.044861	-0.10361	-0.10574	0.012817	-0.05188	0.29938	0.11932	-0.010681	0.18295	-0.093384	-0.52322	0.012665	-0.002899	-0.001221	-0.36011	-0.018616	0.61706	-0.6279	0.005646	-0.013733
2.722	-0.024872	0.11307	0.12665	-0.005798	-0.035706	0.006409	-0.049896	0.006714	-0.42816	0.012665	-0.072021	0.021057	0.048065	-0.14114	-0.017242	0.023499	-0.050507	0.29251	-0.00351	0.018005	0.17654	-0.13336	-0.55069	0.018005	0.00061	0.000916	-0.1471	-0.019684	0.47134	-0.75562	0.01236	-0.015717
2.723	-0.000305	0.089417	0.24948	0.01358	0.04715	-0.043182	0.001984	-0.018463	-0.42954	0.011444	-0.000458	0.025482	-0.000153	-0.16266	0.081635	0.011597	-0.022583	0.31021	-0.01297	0.026855	0.14923	-0.092468	-0.60593	0.030975	-0.004272	-0.023041	0.029449	-0.016937	0.074615	-0.60242	0.011597	-0.015869
2.724	0.029297	0.057831	0.24292	0.00885	0.04425	-0.007935	0.035553	-0.033875	-0.42893	-0.00061	0.092926	0.026093	-0.019226	-0.10666	0.1593	0.015869	-0.012817	0.22522	0.072784	-0.010834	0.121	0.000305	-0.63385	0.003204	-0.005951	-0.028992	-0.04715	0.016632	0.095673	-0.20309	0.010223	-0.01709
2.725	0.041504	0.034027	0.26733	0.012512	0.078735	0.041809	0.086365	-0.037231	-0.31357	-0.003815	0.10696	0.027161	-0.035706	-0.099182	0.16235	0.010376	0.008087	0.22156	-0.054169	-0.000153	0.12192	0.032196	-0.6369	0.018463	-0.015564	-0.008698	-0.20218	0.041962	0.11963	0.21896	0.008087	-0.014191
2.726	0.028534	0.036774	0.29419	0.006256	-0.012512	0.11261	0.14252	-0.019684	-0.21469	0.001526	-0.009308	0.028229	-0.055389	-0.07431	0.11231	0.002441	0.016632	0.17136	-0.11612	0.016022	0.11871	-0.038147	-0.63705	0.062408	0.002136	0.010986	-0.2243	-0.00412	-0.14969	0.71075	0.007935	-0.023499
2.727	-0.001831	0.047607	0.22537	0.022888	-0.033569	0.18219	0.11749	-0.016785	-0.070343	0.012207	-0.007324	0.030518	-0.017548	-0.034485	0.026703	-0.000305	0.028992	0.15564	-0.011444	0.08255	0.091705	-0.10544	-0.64209	0.071259	0.025482	0.015259	-0.19348	-0.075226	-0.22766	0.48721	0.010681	-0.023956
2.728	-0.00946	0.001984	0.16693	0.010986	0.1059	0.23575	0.060577	0.000763	0.033569	0.006256	-0.002136	0.036926	0.011902	-0.033875	0.043793	-0.014038	0.029144	0.17273	-0.00351	0.074158	0.056458	-0.10956	-0.57816	0.056	0.015106	0.015869	-0.11078	0.016327	-0.18295	0.25223	0.005035	-0.019989
2.729	-0.010834	-0.087128	0.1294	0.001831	0.084839	0.1648	0.014954	0.020294	0.053711	0.004425	0.10681	0.038605	0.029602	-0.039368	0.22659	-0.020142	-0.004425	0.15152	-0.039825	-0.03418	0.086212	-0.040894	-0.55725	0.052643	0.006104	0.00412	-0.078125	0.005493	-0.19409	0.50995	0.005493	-0.021057
2.73	0.001068	-0.19882	0.041809	-0.005188	0.063782	0.18341	-0.103	0.018463	0.02594	0.034485	0.14358	0.03418	0.048981	-0.024261	0.33752	-0.029449	-0.033264	0.1564	-0.041962	-0.082397	0.11017	-0.010986	-0.57312	0.0914	0	-0.033569	-0.033112	-0.04715	-0.097198	0.55084	0.005951	-0.0177
2.731	0.012054	-0.23727	-0.047607	-0.01297	0.077057	0.23773	-0.079956	0.006714	0.099792	0.010681	0.1767	0.037079	0.047607	0.035248	0.026398	-0.041351	-0.036011	0.16998	-0.002899	-0.098419	0.096741	0.027466	-0.57312	0.11307	0.030212	-0.026398	-0.026245	0.030823	0.036469	0.26779	0.004425	-0.019531
